<?xml version="1.0" encoding="iso-8859-1"?>
<!-- Generator: Adobe Illustrator 19.0.0, SVG Export Plug-In . SVG Version: 6.00 Build 0)  -->
<svg xmlns="http://www.w3.org/2000/svg" xmlns:xlink="http://www.w3.org/1999/xlink" version="1.1" id="Capa_1" x="0px" y="0px" viewBox="0 0 480 480" style="enable-background:new 0 0 480 480;" xml:space="preserve" width="512px" height="512px">
<g>
	<g>
		<path d="M464,292v-80c0-13.255-10.745-24-24-24H120v-34.664l-24-32V108c8.837,0,16-7.163,16-16V76c0-8.837-7.163-16-16-16H24    c-8.837,0-16,7.163-16,16v16c0,8.837,7.163,16,16,16v26.664l24,32V188h-8c-13.255,0-24,10.745-24,24v80H0v16h16v88    c0,13.255,10.745,24,24,24h400c13.255,0,24-10.745,24-24v-88h16v-16H464z M24,76h72v16H24V76z M40,129.336V108h40v18.664l24,32    V188H64v-26.664L40,129.336z M448,396c0,4.418-3.582,8-8,8H40c-4.418,0-8-3.582-8-8V212c0-4.418,3.582-8,8-8h400    c4.418,0,8,3.582,8,8V396z" fill="#D80027"/>
	</g>
</g>
<g>
	<g>
		<path d="M408.448,252.408c-7.802,7.862-20.501,7.911-28.363,0.109c-0.036-0.036-0.073-0.072-0.109-0.109    c-13.694-12.564-34.722-12.564-48.416,0c-7.776,7.845-20.439,7.9-28.284,0.124c-0.042-0.041-0.083-0.083-0.124-0.124    c-13.677-12.574-34.707-12.574-48.384,0c-7.781,7.84-20.444,7.889-28.284,0.108c-0.036-0.036-0.072-0.072-0.108-0.108    c-13.68-12.576-34.712-12.576-48.392,0c-7.778,7.842-20.442,7.894-28.284,0.116c-0.039-0.039-0.078-0.077-0.116-0.116    c-13.679-12.571-34.706-12.571-48.384,0c-7.75,7.834-20.382,7.902-28.216,0.152c-0.051-0.05-0.102-0.101-0.152-0.152    c-6.55-6.13-15.206-9.507-24.176-9.432v16c5.336-0.046,10.458,2.093,14.176,5.92c6.553,6.137,15.214,9.519,24.192,9.448    c8.97,0.073,17.625-3.303,24.176-9.432c7.783-7.838,20.446-7.883,28.284-0.1c0.033,0.033,0.067,0.066,0.1,0.1    c13.682,12.577,34.718,12.577,48.4,0c7.781-7.84,20.444-7.889,28.284-0.108c0.036,0.036,0.072,0.072,0.108,0.108    c13.68,12.576,34.712,12.576,48.392,0c7.783-7.838,20.446-7.883,28.284-0.1c0.033,0.033,0.067,0.066,0.1,0.1    c13.681,12.572,34.711,12.572,48.392,0c7.765-7.856,20.428-7.929,28.284-0.164c0.055,0.054,0.11,0.109,0.164,0.164    c13.702,12.567,34.739,12.567,48.44,0c3.733-3.835,8.872-5.977,14.224-5.928v-16C423.678,242.909,415.013,246.282,408.448,252.408    z" fill="#D80027"/>
	</g>
</g>
<g>
</g>
<g>
</g>
<g>
</g>
<g>
</g>
<g>
</g>
<g>
</g>
<g>
</g>
<g>
</g>
<g>
</g>
<g>
</g>
<g>
</g>
<g>
</g>
<g>
</g>
<g>
</g>
<g>
</g>
</svg>
