<?xml version="1.0" encoding="iso-8859-1"?>
<!-- Generator: Adobe Illustrator 19.0.0, SVG Export Plug-In . SVG Version: 6.00 Build 0)  -->
<svg version="1.1" id="Capa_1" xmlns="http://www.w3.org/2000/svg" xmlns:xlink="http://www.w3.org/1999/xlink" x="0px" y="0px"
	 viewBox="0 0 480 480" style="enable-background:new 0 0 480 480;" xml:space="preserve">
<path style="fill:#666666;" d="M40,196c-8.837,0-16,7.163-16,16v184c0,8.837,7.163,16,16,16h400c8.837,0,16-7.163,16-16V212
	c0-8.837-7.163-16-16-16H40z"/>
<path style="fill:#F8CF26;" d="M24,68h72c4.418,0,8,3.582,8,8v16c0,4.418-3.582,8-8,8H24c-4.418,0-8-3.582-8-8V76
	C16,71.582,19.582,68,24,68z"/>
<path style="fill:#4D4D4D;" d="M88,100v24l24,32v40H56v-32l-24-32v-32H88z"/>
<path style="fill:#F8CF26;" d="M413.784,252.416c-7.798,7.86-20.492,7.91-28.352,0.112c-0.038-0.037-0.075-0.075-0.112-0.112
	c-13.696-12.565-34.728-12.565-48.424,0c-7.778,7.842-20.442,7.894-28.284,0.116c-0.039-0.039-0.077-0.077-0.116-0.116
	c-13.68-12.576-34.712-12.576-48.392,0c-7.783,7.838-20.446,7.883-28.284,0.1c-0.033-0.033-0.067-0.066-0.1-0.1
	c-13.682-12.577-34.718-12.577-48.4,0c-7.781,7.84-20.444,7.889-28.284,0.108c-0.036-0.036-0.072-0.072-0.108-0.108
	c-13.677-12.574-34.707-12.574-48.384,0c-7.75,7.834-20.382,7.902-28.216,0.152c-0.051-0.05-0.102-0.101-0.152-0.152
	c-6.551-6.127-15.207-9.501-24.176-9.424V384h384V242.992C429.019,242.918,420.352,246.291,413.784,252.416L413.784,252.416z"/>
<g>
	<path style="fill:#333333;" d="M0,292h24v16H0V292z"/>
	<path style="fill:#333333;" d="M456,292h24v16h-24V292z"/>
</g>
<g>
</g>
<g>
</g>
<g>
</g>
<g>
</g>
<g>
</g>
<g>
</g>
<g>
</g>
<g>
</g>
<g>
</g>
<g>
</g>
<g>
</g>
<g>
</g>
<g>
</g>
<g>
</g>
<g>
</g>
</svg>
